<svg version="1" xmlns="http://www.w3.org/2000/svg" width="346.667" height="346.667" viewBox="0 0 260.000000 260.000000"><path d="M5.1 1.4C-.2 4.3.1-1.5 0 129.8c0 132.9-.3 126.4 5.5 129 2 .9 32.1 1.2 124.6 1.2 132.6 0 126.1.3 128.7-5.5 1.7-3.8 1.7-245.2 0-249-2.6-5.8 3.9-5.5-129-5.5C30.2.1 7.1.3 5.1 1.4zM56.2 43h3.7l3.8 11.5c2 6.3 4 11.5 4.3 11.5.3 0 2.1-5.1 4-11.3l3.6-11.2 4.2-.3c2.3-.2 4.2.1 4.2.6 0 1.3-12.9 36.1-14.6 39.4-2.2 4.3-5.5 6-11.1 5.6-4.4-.3-4.8-.5-5.1-3.1-.3-2.3 0-2.7 2.1-2.7 3.2 0 7.7-3.6 7.7-6.3C63 74.2 51.8 44 50.8 44c-.3 0-.9 1.4-1.3 3.1-.6 2.7-1 3-3.4 2.4-1.9-.4-3.5 0-5.2 1.4-2.2 1.8-2.4 2.7-2.7 13.5L37.8 76H30V43h3.5c3 0 3.5.3 3.5 2.2 0 2.2.1 2.2 2.8-.6 2.4-2.5 3.2-2.7 7.7-2.2 2.8.3 6.7.6 8.7.6zm56.2.4c4.5 1.9 5.6 5.5 5.6 18.3 0 5.7.5 11.3 1 12.4 1 1.7.7 1.9-3.3 1.9-3.7 0-4.6-.4-5-2.1l-.6-2.1-2.7 2.1c-1.9 1.5-4.1 2.1-7.9 2.1-6.6 0-10.5-3.3-10.5-8.7 0-6.7 2.4-8.7 13.5-11.3 5.9-1.4 7-1.9 6.7-3.6-.8-4.5-6.8-5.8-10.3-2.3-1.6 1.6-2.8 2-5.5 1.4-1.9-.3-3.4-1-3.4-1.4 0-1.5 4.3-6.3 6.4-7.1 3.3-1.4 12.3-1.1 16 .4zm39-.4c4.5 1.7 5.6 5.6 5.6 20v13h-8V65.2c0-14.5-2.4-18.9-8.8-16.3-4.1 1.7-5.2 5.3-5.2 17.2V76h-8V43h4c3.4 0 4 .3 4 2.2v2.1l2.3-2c1.2-1.1 2.9-2.3 3.7-2.6 2.5-.9 7.7-.8 10.4.3zm-11.5 63.9c.9.6 1.1 1.8.7 3.5-.5 2.1-1.1 2.5-3 2-2.9-.7-5.8 2-5.4 5 .2 1.6 1.1 2.2 3.6 2.4 2.8.3 3.2.7 3.2 3.3 0 2.7-.3 2.9-3.5 2.9H132v27h-8v-27h-2.5c-2.1 0-2.5-.5-2.5-2.9 0-2.3.5-3 2.3-3.3 1.6-.2 2.3-1.1 2.5-3.3.4-4.7 2.1-8.2 4.5-9.3 2.7-1.3 9.7-1.5 11.6-.3zm22 0c.9.6 1.1 1.8.7 3.5-.5 2.1-1.1 2.5-3 2-2.9-.7-5.8 2-5.4 5 .2 1.6 1.1 2.2 3.6 2.4 2.8.3 3.2.7 3.2 3.3 0 2.7-.3 2.9-3.5 2.9H154v27h-8v-27h-2.5c-2.1 0-2.5-.5-2.5-2.9 0-2.3.5-3 2.3-3.3 1.6-.2 2.3-1.1 2.5-3.3.4-4.7 2.1-8.2 4.5-9.3 2.7-1.3 9.7-1.5 11.6-.3zM54.6 121.4l2.8 2.3 3.4-2.3c5-3.5 10.5-3.2 14.3.5l2.9 2.9V153h-8v-11.9c0-10.2-.3-12.2-1.9-14.2-1.6-2-2.3-2.2-4.7-1.4-4.4 1.6-5.4 4.7-5.4 16.7V153h-8v-10.9c0-6-.4-12.1-1-13.5-1.4-3.7-5.5-4.4-8.6-1.5-2.3 2.1-2.4 2.8-2.4 14.1V153h-9v-33h4c3.3 0 4 .3 4 2 0 1.8.2 1.8 3.6-.5 4.8-3.3 10.3-3.3 14-.1zm53.8-1c4.5 1.9 5.6 5.5 5.6 18.3 0 5.7.5 11.3 1 12.4 1 1.7.7 1.9-3.3 1.9-3.7 0-4.6-.4-5-2.1l-.6-2.1-2.7 2.1c-1.9 1.5-4.1 2.1-7.9 2.1-6.6 0-10.5-3.3-10.5-8.7 0-6.7 2.4-8.7 13.5-11.3 5.9-1.4 7-1.9 6.7-3.6-.8-4.5-6.8-5.8-10.3-2.3-1.6 1.6-2.8 2-5.5 1.4-1.9-.3-3.4-1-3.4-1.4 0-1.5 4.3-6.3 6.4-7.1 3.3-1.4 12.3-1.1 16 .4zm78.6.4c4.1 2 8 8.8 8 13.9v3.3h-10.5c-11.8 0-13.4.9-9.8 5.8 2.7 3.6 8.6 4.3 10.3 1.3 1.1-2.2 5.3-2.8 7.9-1.2 1 .7 1.1 1.3.1 3-2 3.8-7 6.1-13 6.1-10.2 0-15.3-5.5-15.4-16.6 0-13.4 11.2-21.3 22.4-15.6zm24.7 10.7c2 6.3 4 11.5 4.3 11.5.3 0 2.1-5.1 4-11.3l3.6-11.2 4.2-.3c2.3-.2 4.2.1 4.2.6 0 1.3-12.9 36.1-14.6 39.4-2.2 4.3-5.5 6-11.1 5.6-4.4-.3-4.8-.5-5.1-3.1-.3-2.3 0-2.7 2.1-2.7 3.3 0 7.7-3.6 7.7-6.3 0-1.3-1.4-5.8-3.1-10.2-1.7-4.4-4.4-11.5-6-15.8l-2.8-7.7h8.8l3.8 11.5zM78 206v23h-3.5c-3.1 0-3.5-.3-3.5-2.5v-2.4l-3.6 2.4c-2.6 1.7-5 2.5-8.2 2.5-3.8 0-5-.5-8.2-3.8-4.3-4.3-5.7-9.9-4.5-17.8 1.5-10.1 11.8-15.5 19.9-10.4l3.6 2.2V183h8v23zm29-9.2c4.1 2 8 8.8 8 13.9v3.3h-10.5c-11.8 0-13.4.9-9.8 5.8 2.7 3.6 8.6 4.3 10.3 1.3 1.1-2.2 5.3-2.8 7.9-1.2 1 .7 1.1 1.3.1 3-2 3.8-7 6.1-13 6.1-10.2 0-15.3-5.5-15.4-16.6 0-13.4 11.2-21.3 22.4-15.6zm24.8 10.4c3.6 10.1 4.1 11 5 8.8.5-1.4 2.4-6.4 4.2-11.3l3.3-8.7h8.5l-6.6 16.5-6.6 16.5h-7.4l-4.7-11.8c-2.6-6.4-5.6-13.8-6.6-16.5L119 196h8.8l4 11.2zM38 224.5v4.5h-8v-9h8v4.5z"/><path d="M103 61.2c-1.9.5-4.1 1.4-4.7 2-2.1 1.7-1.5 4.6 1.2 6.4 3.7 2.4 8.1.4 9.5-4.5.5-2 1-3.9 1-4.4 0-.9-2.6-.8-7 .5zM99 138.2c-1.9.5-4.1 1.4-4.7 2-2.1 1.7-1.5 4.6 1.2 6.4 3.7 2.4 8.1.4 9.5-4.5.5-2 1-3.9 1-4.4 0-.9-2.6-.8-7 .5zM175.4 127.5c-4.3 4.3-2.9 6 4.6 6 5.3 0 6.5-.3 6.8-1.7.4-2.3-4.1-6.8-6.8-6.8-1.1 0-3.2 1.1-4.6 2.5zM57.5 203.5c-2.1 2-2.5 3.4-2.5 8.5s.4 6.5 2.5 8.5c3 3.1 5.6 3.2 9.2.1 2.5-2.2 2.8-3.1 2.8-8.6s-.3-6.4-2.8-8.6c-3.6-3.1-6.2-3-9.2.1zM95.4 203.5c-4.3 4.3-2.9 6 4.6 6 5.3 0 6.5-.3 6.8-1.7.4-2.3-4.1-6.8-6.8-6.8-1.1 0-3.2 1.1-4.6 2.5z"/></svg>