<?xml version="1.0" standalone="no"?>
<!DOCTYPE svg PUBLIC "-//W3C//DTD SVG 20010904//EN"
 "http://www.w3.org/TR/2001/REC-SVG-20010904/DTD/svg10.dtd">
<svg version="1.0" xmlns="http://www.w3.org/2000/svg"
 width="520.000000pt" height="520.000000pt" viewBox="0 0 520.000000 520.000000"
 preserveAspectRatio="xMidYMid meet">
<metadata>
Created by potrace 1.11, written by Peter Selinger 2001-2013
</metadata>
<g transform="translate(0.000000,520.000000) scale(0.100000,-0.100000)"
fill="#000000" stroke="none">
<path d="M2445 5074 c-425 -44 -823 -208 -1190 -489 -122 -94 -393 -367 -487
-490 -128 -170 -263 -389 -334 -542 -268 -582 -355 -1225 -249 -1846 102 -592
385 -1074 783 -1330 309 -199 755 -301 1180 -268 334 25 586 80 889 192 233
86 415 178 658 332 436 277 840 726 1081 1199 195 383 278 691 291 1068 8 248
-22 437 -104 665 -152 422 -512 836 -977 1120 -238 146 -529 269 -765 324
-228 54 -299 63 -521 66 -118 2 -233 1 -255 -1z m-555 -1645 c90 -14 176 -58
248 -126 113 -106 172 -239 172 -387 0 -149 -43 -260 -143 -363 -54 -57 -59
-65 -49 -87 6 -13 72 -130 146 -259 75 -130 139 -243 142 -252 5 -13 -22 -15
-228 -15 l-234 0 -130 228 -130 227 -72 3 -72 3 -2 -228 -3 -228 -207 -3 -208
-2 0 750 0 750 353 0 c198 0 380 -5 417 -11z m1256 -329 c84 -184 157 -336
162 -338 5 -1 79 149 164 335 l156 338 226 3 226 2 0 -750 0 -750 -207 2 -208
3 -5 372 -5 372 -116 -257 -116 -257 -113 0 -114 0 -116 252 c-63 139 -118
255 -122 259 -5 4 -8 -162 -8 -369 l0 -377 -205 0 -205 0 0 750 0 750 226 -2
227 -3 153 -335z"/>
<path d="M1540 2915 l0 -155 136 0 136 0 33 33 c61 61 58 191 -5 250 -30 27
-32 27 -165 27 l-135 0 0 -155z"/>
</g>
</svg>
